<svg xmlns="http://www.w3.org/2000/svg" viewBox="0 0 1440 900" preserveAspectRatio="xMidYMid slice">
<!-- Project 93 - background field.
     Matches the client's deck: a BRIGHT saturated orange rust wall with a fine
     granular grain and a mild vignette. It must never fall to black - the black
     in his design is delivered by the plates and cards that sit ON the field,
     not by the field itself. Cracks are a dense crazing web (generated Voronoi,
     warped) as on his cracked-plaster reference, not a few large fissures. -->
<defs>
  <radialGradient id="field" cx="42%" cy="36%" r="88%">
    <stop offset="0%"   stop-color="#F0800F"/>
    <stop offset="42%"  stop-color="#DD6A08"/>
    <stop offset="76%"  stop-color="#A94206"/>
    <stop offset="100%" stop-color="#5E2404"/>
  </radialGradient>
  <filter id="grit" x="0" y="0" width="100%" height="100%">
    <feTurbulence type="fractalNoise" baseFrequency="0.9" numOctaves="3" stitchTiles="stitch" result="n"/>
    <feColorMatrix in="n" type="saturate" values="0"/>
  </filter>
  <filter id="mottle" x="0" y="0" width="100%" height="100%">
    <feTurbulence type="fractalNoise" baseFrequency="0.013 0.018" numOctaves="4" seed="19" result="n"/>
    <feColorMatrix in="n" type="saturate" values="0"/>
  </filter>
  <!-- no edge of the generated net is dead straight once displaced -->
  <filter id="warp" x="-15%" y="-15%" width="130%" height="130%">
    <feTurbulence type="fractalNoise" baseFrequency="0.021" numOctaves="3" seed="11" result="t"/>
    <feDisplacementMap in="SourceGraphic" in2="t" scale="26" xChannelSelector="R" yChannelSelector="G"/>
  </filter>
</defs>
<rect width="1440" height="900" fill="url(#field)"/>
<rect width="1440" height="900" filter="url(#mottle)" opacity="0.28" style="mix-blend-mode:multiply"/>
<rect width="1440" height="900" filter="url(#mottle)" opacity="0.14" style="mix-blend-mode:screen"/>
<g filter="url(#warp)" fill="none" stroke-linecap="round" opacity="0.70">
  <path d="M1479.9,900.2L1464.6,1057.2M1479.9,900.2L1588.1,799.9M-124.1,82.4L-7.6,185.3M-69.3,268.4L-7.6,185.3M1448.5,888.1L1293.9,674.3M1293.9,674.3L1209.9,694.2M1479.9,900.2L1448.5,888.1M1241.3,878.2L1262.1,1091.8M744.3,586.7L844.5,746.3M744.3,586.7L979.6,569.3M995.4,578.1L979.6,569.3M995.4,578.1L926.4,719.4M926.4,719.4L844.5,746.3M1468.5,442.5L1439.3,591.4M1468.5,442.5L1526.4,414.8M1579.0,763.8L1439.3,591.4M1260.7,367.0L1209.1,693.4M1260.7,367.0L1030.0,552.8M1209.1,693.4L1019.6,572.7M1032.7,333.2L913.9,300.4M1032.7,333.2L1030.0,552.8M913.9,300.4L833.6,383.5M833.6,383.5L979.6,569.3M995.4,578.1L1019.6,572.7M1009.9,962.6L1040.8,898.5M842.9,940.2L944.9,755.4M944.9,755.4L1040.8,898.5M1186.9,817.7L1040.8,898.5M1209.9,694.2L1209.1,693.4M926.4,719.4L944.9,755.4M509.5,254.2L647.7,153.5M509.5,254.2L620.9,545.5M647.7,153.5L768.7,383.3M620.9,545.5L768.7,383.3M619.4,550.2L606.2,563.7M619.4,550.2L620.9,545.5M504.5,254.5L401.4,474.6M504.5,254.5L509.5,254.2M606.2,563.7L401.4,474.6M619.4,550.2L744.3,586.7M833.6,383.5L768.7,383.3M908.9,202.5L837.0,88.2M647.7,153.5L652.2,142.5M764.5,65.5L652.2,142.5M504.5,254.5L318.8,216.0M318.8,216.0L511.8,7.7M652.2,142.5L511.8,7.7M1468.5,442.5L1386.2,397.2M1260.7,367.0L1268.3,356.8M1386.2,397.2L1268.3,356.8M1558.4,164.9L1473.3,131.5M1473.3,131.5L1413.1,207.8M1386.2,397.2L1413.1,207.8M1032.7,333.2L1193.7,236.2M1268.3,356.8L1193.7,236.2M1353.2,-50.6L1329.3,-37.7M1353.2,-50.6L1460.4,120.1M1329.3,-37.7L1176.7,136.7M1460.4,120.1L1284.4,200.3M1176.7,136.7L1177.3,172.6M1177.3,172.6L1193.0,222.9M1193.0,222.9L1284.4,200.3M1058.8,-149.1L1329.3,-37.7M1426.5,-172.2L1353.2,-50.6M1473.3,131.5L1460.4,120.1M1030.7,10.1L1039.9,-134.0M1030.7,10.1L1176.7,136.7M1413.1,207.8L1284.4,200.3M908.9,202.5L1177.3,172.6M837.0,88.2L1030.7,10.1M1193.7,236.2L1193.0,222.9M665.6,953.6L726.6,886.4M665.6,953.6L639.5,957.8M639.5,957.8L435.4,836.0M726.7,842.3L580.4,648.0M726.7,842.3L726.6,886.4M435.4,836.0L549.4,667.1M580.4,648.0L549.4,667.1M702.9,1077.0L665.6,953.6M471.4,1086.4L639.5,957.8M844.5,746.3L726.7,842.3M606.2,563.7L580.4,648.0M380.0,1041.2L370.5,866.3M77.4,983.3L102.3,954.2M102.3,954.2L349.5,855.2M370.5,866.3L349.5,855.2M435.4,836.0L370.5,866.3M-7.6,185.3L53.8,149.5M53.8,149.5L42.5,-85.0M799.2,-70.5L764.3,60.5M217.8,-69.7L347.9,-48.5M347.9,-48.5L340.0,-435.2M53.8,149.5L199.8,191.1M199.8,191.1L217.8,-69.7M483.4,-37.4L565.8,-192.3M483.4,-37.4L355.2,-41.4M355.2,-41.4L353.1,-43.5M353.1,-43.5L514.2,-300.9M511.8,7.7L483.4,-37.4M764.3,60.5L565.8,-192.3M199.8,191.1L265.1,225.6M265.1,225.6L290.0,214.5M347.9,-48.5L353.1,-43.5M23.3,980.0L-17.7,803.2M-17.7,803.2L-160.3,751.8M182.1,652.7L143.4,629.5M182.1,652.7L210.8,657.4M143.4,629.5L240.3,331.1M210.8,657.4L267.7,627.6M267.7,627.6L371.3,475.1M371.3,475.1L250.3,320.0M250.3,320.0L240.3,331.1M102.3,954.2L182.1,652.7M-17.7,803.2L108.0,623.3M108.0,623.3L143.4,629.5M349.5,855.2L210.8,657.4M265.1,225.6L250.3,320.0M62.7,594.1L-122.1,603.1M62.7,594.1L26.9,413.1M-30.6,356.3L-124.6,484.1M108.0,623.3L62.7,594.1M240.3,331.1L26.9,413.1M-69.3,268.4L-30.6,356.3" stroke="#3a1601" stroke-opacity=".62" stroke-width="2.2"/>
  <path d="M1479.9,900.2L1464.6,1057.2M1479.9,900.2L1588.1,799.9M-124.1,82.4L-7.6,185.3M-69.3,268.4L-7.6,185.3M1448.5,888.1L1293.9,674.3M1293.9,674.3L1209.9,694.2M1479.9,900.2L1448.5,888.1M1241.3,878.2L1262.1,1091.8M744.3,586.7L844.5,746.3M744.3,586.7L979.6,569.3M995.4,578.1L979.6,569.3M995.4,578.1L926.4,719.4M926.4,719.4L844.5,746.3M1468.5,442.5L1439.3,591.4M1468.5,442.5L1526.4,414.8M1579.0,763.8L1439.3,591.4M1260.7,367.0L1209.1,693.4M1260.7,367.0L1030.0,552.8M1209.1,693.4L1019.6,572.7M1032.7,333.2L913.9,300.4M1032.7,333.2L1030.0,552.8M913.9,300.4L833.6,383.5M833.6,383.5L979.6,569.3M995.4,578.1L1019.6,572.7M1009.9,962.6L1040.8,898.5M842.9,940.2L944.9,755.4M944.9,755.4L1040.8,898.5M1186.9,817.7L1040.8,898.5M1209.9,694.2L1209.1,693.4M926.4,719.4L944.9,755.4M509.5,254.2L647.7,153.5M509.5,254.2L620.9,545.5M647.7,153.5L768.7,383.3M620.9,545.5L768.7,383.3M619.4,550.2L606.2,563.7M619.4,550.2L620.9,545.5M504.5,254.5L401.4,474.6M504.5,254.5L509.5,254.2M606.2,563.7L401.4,474.6M619.4,550.2L744.3,586.7M833.6,383.5L768.7,383.3M908.9,202.5L837.0,88.2M647.7,153.5L652.2,142.5M764.5,65.5L652.2,142.5M504.5,254.5L318.8,216.0M318.8,216.0L511.8,7.7M652.2,142.5L511.8,7.7M1468.5,442.5L1386.2,397.2M1260.7,367.0L1268.3,356.8M1386.2,397.2L1268.3,356.8M1558.4,164.9L1473.3,131.5M1473.3,131.5L1413.1,207.8M1386.2,397.2L1413.1,207.8M1032.7,333.2L1193.7,236.2M1268.3,356.8L1193.7,236.2M1353.2,-50.6L1329.3,-37.7M1353.2,-50.6L1460.4,120.1M1329.3,-37.7L1176.7,136.7M1460.4,120.1L1284.4,200.3M1176.7,136.7L1177.3,172.6M1177.3,172.6L1193.0,222.9M1193.0,222.9L1284.4,200.3M1058.8,-149.1L1329.3,-37.7M1426.5,-172.2L1353.2,-50.6M1473.3,131.5L1460.4,120.1M1030.7,10.1L1039.9,-134.0M1030.7,10.1L1176.7,136.7M1413.1,207.8L1284.4,200.3M908.9,202.5L1177.3,172.6M837.0,88.2L1030.7,10.1M1193.7,236.2L1193.0,222.9M665.6,953.6L726.6,886.4M665.6,953.6L639.5,957.8M639.5,957.8L435.4,836.0M726.7,842.3L580.4,648.0M726.7,842.3L726.6,886.4M435.4,836.0L549.4,667.1M580.4,648.0L549.4,667.1M702.9,1077.0L665.6,953.6M471.4,1086.4L639.5,957.8M844.5,746.3L726.7,842.3M606.2,563.7L580.4,648.0M380.0,1041.2L370.5,866.3M77.4,983.3L102.3,954.2M102.3,954.2L349.5,855.2M370.5,866.3L349.5,855.2M435.4,836.0L370.5,866.3M-7.6,185.3L53.8,149.5M53.8,149.5L42.5,-85.0M799.2,-70.5L764.3,60.5M217.8,-69.7L347.9,-48.5M347.9,-48.5L340.0,-435.2M53.8,149.5L199.8,191.1M199.8,191.1L217.8,-69.7M483.4,-37.4L565.8,-192.3M483.4,-37.4L355.2,-41.4M355.2,-41.4L353.1,-43.5M353.1,-43.5L514.2,-300.9M511.8,7.7L483.4,-37.4M764.3,60.5L565.8,-192.3M199.8,191.1L265.1,225.6M265.1,225.6L290.0,214.5M347.9,-48.5L353.1,-43.5M23.3,980.0L-17.7,803.2M-17.7,803.2L-160.3,751.8M182.1,652.7L143.4,629.5M182.1,652.7L210.8,657.4M143.4,629.5L240.3,331.1M210.8,657.4L267.7,627.6M267.7,627.6L371.3,475.1M371.3,475.1L250.3,320.0M250.3,320.0L240.3,331.1M102.3,954.2L182.1,652.7M-17.7,803.2L108.0,623.3M108.0,623.3L143.4,629.5M349.5,855.2L210.8,657.4M265.1,225.6L250.3,320.0M62.7,594.1L-122.1,603.1M62.7,594.1L26.9,413.1M-30.6,356.3L-124.6,484.1M108.0,623.3L62.7,594.1M240.3,331.1L26.9,413.1M-69.3,268.4L-30.6,356.3" stroke="#ffcf9a" stroke-opacity=".20" stroke-width="1.1" transform="translate(1.4,1.4)"/>
  <path d="M83.9,727.4L11.4,662.9M270.5,316.1L270.4,295.7M270.5,316.1L325.6,395.6M270.4,295.7L337.6,312.0M325.6,395.6L339.7,420.0M344.9,312.6L337.6,312.0M1476.7,581.6L1443.6,612.3M1476.7,581.6L1531.0,658.5M1463.2,685.5L1526.6,678.4M767.2,580.7L781.2,608.9M767.2,580.7L847.7,548.9M781.2,608.9L855.6,591.4M169.3,-78.2L119.4,-46.1M397.3,306.1L344.9,312.6M397.3,306.1L338.2,239.9M338.2,239.9L260.1,272.0M246.7,267.0L163.9,232.5M148.3,347.5L141.6,347.4M163.9,232.5L156.3,225.4M156.3,225.4L117.4,228.1M138.9,318.1L109.7,270.6M109.7,270.6L117.4,228.1M173.5,150.5L191.6,149.2M198.6,60.4L242.0,83.9M242.0,83.9L243.8,86.8M109.9,-24.2L119.4,-46.1M109.9,-24.2L129.5,5.6M198.6,60.4L200.0,15.7M129.5,5.6L127.6,76.6M200.0,15.7L179.3,8.8M750.8,497.8L753.8,426.7M750.8,497.8L756.0,498.2M812.2,383.2L753.8,426.7M1397.3,423.0L1322.0,403.5M1369.4,335.1L1361.6,329.5M1463.2,685.5L1441.4,722.9M1441.9,619.3L1412.1,634.0M1441.4,722.9L1400.7,703.7M1400.7,703.7L1381.8,676.2M1443.6,612.3L1397.4,583.7M1311.8,615.8L1397.4,583.7M1311.8,615.8L1310.9,619.7M1412.1,634.0L1310.9,619.7M1310.1,744.2L1299.9,679.4M1310.1,744.2L1315.8,744.8M1400.7,703.7L1315.8,744.8M1299.9,679.4L1309.6,654.3M1252.1,526.9L1209.0,585.2M1209.0,585.2L1243.4,617.9M1310.9,619.7L1308.3,625.4M1243.4,617.9L1308.3,625.4M1308.3,625.4L1309.6,654.3M1540.9,516.5L1480.9,551.1M1480.0,575.8L1480.9,551.1M1476.7,581.6L1480.0,575.8M1464.9,531.4L1480.9,551.1M1464.9,531.4L1513.1,427.6M755.5,864.4L755.3,860.6M704.7,881.6L738.9,877.8M704.7,881.6L644.6,845.9M682.5,780.8L700.9,783.7M755.5,864.4L809.7,891.8M738.9,877.8L733.1,986.2M817.1,932.7L909.9,931.3M840.8,665.6L933.9,665.8M781.2,608.9L761.2,666.8M855.6,591.4L864.0,602.5M858.2,711.1L840.8,665.6M858.2,711.1L771.7,739.9M755.0,671.1L761.2,666.8M950.9,697.3L933.9,665.8M950.9,697.3L976.5,700.9M890.4,739.4L889.0,747.2M889.0,747.2L932.5,806.7M932.5,806.7L955.8,794.3M976.5,700.9L955.8,794.3M122.2,353.0L74.8,306.9M65.8,399.9L37.6,323.7M74.8,306.9L37.6,323.7M141.6,347.4L135.5,350.6M73.7,294.8L74.8,306.9M39.5,-6.8L35.6,37.7M127.6,76.6L55.7,84.5M145.2,686.5L212.2,640.3M122.5,572.3L204.3,616.6M122.5,572.3L105.3,594.7M212.2,640.3L204.3,616.6M105.3,594.7L104.2,604.7M138.3,701.6L145.2,686.5M229.5,652.9L212.2,640.3M67.9,663.0L104.2,604.7M99.3,708.0L138.3,701.6M121.5,550.6L122.5,572.3M226.7,581.1L209.0,533.5M246.7,267.0L252.8,266.7M191.6,149.2L231.7,171.2M271.9,99.2L243.8,86.8M226.7,581.1L242.6,574.4M209.0,533.5L225.5,499.5M242.6,574.4L261.7,528.6M261.7,528.6L225.5,499.5M752.5,670.5L661.2,741.4M752.5,670.5L755.0,671.1M700.9,783.7L770.4,748.0M770.4,748.0L771.7,739.9M661.2,741.4L659.6,748.3M154.2,132.9L97.8,159.6M106.4,223.5L97.8,159.6M43.1,109.7L55.7,84.5M43.1,109.7L94.9,158.5M97.8,159.6L94.9,158.5M200.0,15.7L239.5,-14.2M750.8,497.8L745.0,502.0M667.3,402.9L699.3,490.2M756.0,498.2L847.6,538.8M498.2,266.2L489.6,246.7M498.2,266.2L527.8,284.2M552.2,177.5L498.0,219.1M672.4,393.4L619.7,329.8M570.0,429.0L611.3,443.1M570.0,429.0L598.4,337.8M667.3,402.9L611.3,443.1M539.9,321.3L527.8,284.2M539.9,321.3L511.3,352.4M511.3,352.4L442.1,320.1M541.0,437.2L506.7,385.8M1526.6,289.2L1469.1,311.8M1545.9,373.7L1469.5,318.8M1445.6,417.5L1439.4,371.8M1445.6,417.5L1513.1,427.6M1439.4,371.8L1469.5,318.8M731.6,119.5L749.2,137.3M636.1,124.2L628.7,175.6M749.2,137.3L747.8,140.6M747.8,140.6L630.0,176.5M628.7,175.6L630.0,176.5M793.0,123.5L749.2,137.3M793.0,123.5L807.0,125.2M792.3,229.0L841.1,192.9M839.2,448.0L877.8,468.0M847.6,538.8L877.4,508.8M877.8,468.0L877.4,508.8M773.4,350.5L718.5,292.0M1241.3,481.8L1311.4,443.2M1311.4,443.2L1316.8,410.9M1316.8,410.9L1230.4,403.4M1230.4,403.4L1213.5,418.8M1085.0,360.2L1117.0,398.7M1117.0,398.7L1173.5,391.2M1166.9,346.2L1120.9,328.1M1092.7,335.1L1120.9,328.1M984.6,214.6L981.2,193.5M981.2,193.5L1030.5,164.7M1083.7,236.1L1119.4,202.2M1004.0,299.9L1067.0,306.5M1004.0,299.9L996.0,230.4M1448.8,282.9L1485.8,237.5M1518.6,232.2L1485.8,237.5M1189.6,414.8L1213.5,418.8M1189.6,414.8L1173.5,391.2M1230.4,403.4L1242.8,345.4M1166.9,346.2L1203.0,325.1M970.5,52.6L977.7,76.5M970.5,52.6L981.5,37.5M1038.8,88.4L1022.3,99.9M1038.8,88.4L1035.6,30.8M1549.0,734.9L1475.7,769.1M1444.3,751.0L1406.7,782.4M1205.3,655.9L1156.4,618.5M1123.2,687.4L1158.6,722.9M1158.6,722.9L1173.9,733.4M1299.9,679.4L1213.6,689.0M1243.4,617.9L1205.3,655.9M755.3,860.6L775.6,830.4M770.4,748.0L771.0,748.8M820.9,882.8L891.9,861.9M809.7,891.8L820.9,882.8M917.2,921.0L902.1,864.5M902.1,864.5L891.9,861.9M775.6,830.4L830.0,804.2M889.0,747.2L841.4,791.4M771.0,748.8L839.4,791.8M976.5,700.9L1025.3,698.7M1025.3,698.7L1034.3,735.2M1009.0,791.8L1034.3,735.2M1158.6,722.9L1070.8,766.5M1070.8,766.5L1034.3,735.2M1173.9,733.4L1176.8,747.6M1203.0,703.8L1293.6,753.7M1176.8,747.6L1293.6,753.7M1092.0,796.5L1173.0,784.3M1176.8,747.6L1173.0,784.3M1310.1,744.2L1302.2,755.2M-24.9,53.4L-44.5,107.5M-50.0,107.4L-44.5,107.5M-71.7,114.0L-50.0,107.4M-69.5,-43.4L-46.0,-43.6M-9.1,-21.3L-46.0,-43.6M423.8,239.7L489.6,246.7M423.8,239.7L408.1,207.7M498.0,219.1L451.4,172.0M397.3,306.1L399.9,307.0M399.9,307.0L423.8,239.7M264.1,8.6L339.0,22.9M353.0,-8.2L339.0,22.9M155.7,464.2L157.9,466.1M155.7,464.2L67.7,431.3M157.9,466.1L123.4,548.4M121.5,550.6L69.3,518.1M-6.5,310.8L-24.5,340.4M-6.5,310.8L37.6,323.7M65.8,399.9L55.7,414.6M-24.5,340.4L24.8,416.0M24.8,416.0L55.7,414.6M155.7,464.2L135.5,350.6M-51.1,508.2L-72.5,428.5M5.2,431.8L-72.5,428.5M255.4,468.1L220.9,473.7M255.4,468.1L321.9,434.4M202.5,458.0L220.9,473.7M219.9,393.5L218.4,394.3M225.5,499.5L220.9,473.7M299.9,527.5L299.6,522.0M299.6,522.0L255.4,468.1M157.9,466.1L202.5,458.0M148.3,347.5L218.4,394.3M299.9,527.5L337.9,566.5M166.0,740.2L185.1,771.8M229.5,652.9L266.9,676.9M185.1,771.8L261.9,711.4M261.9,711.4L266.9,676.9M40.2,245.4L61.9,229.2M40.2,245.4L-6.2,250.1M61.9,229.2L54.3,186.1M54.3,186.1L7.3,136.1M-26.7,212.6L-18.8,239.2M2.7,137.5L7.3,136.1M-18.8,239.2L-18.6,239.4M73.7,294.8L40.2,245.4M-6.5,310.8L-6.2,250.1M94.9,158.5L54.3,186.1M43.1,109.7L7.3,136.1M-99.6,248.8L-18.8,239.2M-77.1,287.4L-18.6,239.4M725.8,106.3L731.6,119.5M680.1,50.9L633.1,78.1M636.1,124.2L632.8,114.9M632.8,114.9L633.1,78.1M611.3,443.1L617.9,458.6M699.3,490.2L678.8,494.5M617.9,458.6L678.8,494.5M736.4,547.6L699.1,584.6M699.1,584.6L710.7,643.1M652.4,690.3L661.2,741.4M652.4,690.3L667.8,658.8M620.4,328.4L604.5,264.9M620.4,328.4L707.2,274.9M604.5,264.9L657.1,230.2M657.1,230.2L705.7,270.8M705.7,270.8L707.2,274.9M619.7,329.8L620.4,328.4M715.8,280.5L718.5,292.0M715.8,280.5L707.2,274.9M734.1,184.1L705.7,270.8M786.7,267.3L715.8,280.5M461.5,392.8L440.2,320.4M381.2,398.9L406.0,316.3M541.0,437.2L531.9,452.4M506.7,385.8L461.5,392.8M531.9,452.4L452.2,456.5M378.6,497.0L436.1,493.7M340.9,420.0L381.2,398.9M436.1,493.7L452.2,456.5M442.1,320.1L440.2,320.4M399.9,307.0L406.0,316.3M532.3,501.4L531.9,452.4M436.1,493.7L455.5,522.1M507.1,518.1L455.5,522.1M352.4,564.7L384.3,586.6M384.3,586.6L448.4,547.1M705.0,23.5L751.7,38.3M761.7,-54.4L795.7,8.7M751.7,38.3L779.9,32.2M779.9,32.2L795.7,8.7M680.1,50.9L682.8,41.0M682.8,41.0L705.0,23.5M682.8,41.0L635.2,-14.8M655.6,-42.3L635.2,-14.8M655.6,-42.3L720.2,-24.5M793.0,123.5L779.9,32.2M849.7,17.4L795.7,8.7M868.9,310.4L821.4,303.2M868.9,310.4L885.6,291.0M885.6,291.0L890.3,247.5M821.4,303.2L815.0,286.9M883.5,330.1L877.1,377.0M883.5,330.1L947.2,317.7M947.2,317.7L941.7,309.1M941.7,309.1L885.6,291.0M927.0,259.3L890.3,247.5M786.7,267.3L815.0,286.9M844.9,167.7L908.2,128.4M844.9,167.7L926.1,185.1M948.0,147.0L954.5,172.2M842.2,168.2L844.9,167.7M850.4,86.4L886.4,93.0M883.2,239.9L926.1,185.1M970.5,52.6L941.0,47.8M977.7,76.5L948.0,147.0M941.0,47.8L886.4,93.0M1037.8,128.7L1022.3,99.9M1037.8,128.7L1030.5,164.7M981.2,193.5L954.5,172.2M877.1,377.0L896.0,388.6M877.8,468.0L886.2,459.7M1189.6,414.8L1129.2,472.7M1118.4,476.1L1129.2,472.7M930.8,527.4L935.9,594.8M1035.8,685.2L1037.0,640.6M1148.9,212.4L1221.6,253.7M1144.6,275.5L1203.1,308.5M1119.4,202.2L1134.4,197.7M1203.0,325.1L1203.1,308.5M1254.1,248.1L1265.1,248.6M1265.1,248.6L1267.5,250.3M904.7,17.9L856.6,12.6M904.7,17.9L929.5,-42.7M856.6,12.6L862.8,-37.1M929.5,-42.7L923.4,-72.5M983.1,3.9L929.5,-42.7M1534.4,-8.0L1495.4,-5.0M1541.8,-16.8L1498.8,-107.6M1492.6,-6.3L1495.4,-5.0M1392.0,-3.5L1382.4,-32.5M1382.4,-32.5L1415.2,-76.9M1401.0,2.6L1492.6,-6.3M1474.7,51.7L1502.9,102.5M1493.8,115.5L1502.9,102.5M1415.1,80.6L1416.1,77.8M1401.0,2.6L1416.1,77.8M1487.0,151.5L1541.5,185.2M1487.0,151.5L1493.8,115.5M1392.0,-3.5L1349.1,26.4M1349.1,26.4L1327.7,82.1M1409.3,87.6L1337.4,123.7M1265.1,248.6L1272.9,215.5M1371.5,186.5L1334.6,130.3M1334.6,130.3L1301.5,139.1M1254.1,248.1L1218.4,161.2M1223.9,73.4L1247.6,128.4M1327.7,82.1L1279.1,39.8M1337.4,123.7L1334.6,130.3M1218.0,151.2L1176.3,111.4M1176.3,111.4L1127.1,156.4M1349.1,26.4L1292.6,-6.8M1279.0,14.9L1292.6,-6.8M1382.4,-32.5L1356.4,-45.2M1292.9,-11.9L1296.8,-32.3M1356.4,-45.2L1296.8,-32.3M1371.7,478.3L1422.6,434.2M1425.6,433.9L1422.6,434.2M1425.6,433.9L1442.6,516.8M1386.9,532.2L1382.7,530.4M1397.3,423.0L1422.6,434.2M1311.4,443.2L1329.5,470.6M1369.4,335.1L1439.4,371.8M1464.9,531.4L1442.6,516.8M1397.4,583.7L1386.9,532.2M1475.7,769.1L1486.7,791.6M1486.7,791.6L1543.2,818.6M1092.0,796.5L1081.1,830.5M1081.1,830.5L1108.1,864.6M1173.0,784.3L1190.2,817.9M917.2,921.0L978.2,926.1M986.1,992.9L989.6,943.1M978.2,926.1L989.6,943.1M1038.0,1032.0L1062.6,945.3M-71.1,709.5L-51.2,736.5M-71.1,709.5L4.2,658.0M-51.2,736.5L19.3,729.0M19.3,729.0L9.7,662.8M4.2,658.0L9.7,662.8M-143.2,764.6L-49.1,770.3M11.4,662.9L9.7,662.8M25.2,597.2L14.1,601.8M75.3,1004.4L69.8,959.6M-0.7,957.7L69.8,959.6M134.7,934.4L88.4,934.0M-49.1,770.3L-49.1,770.6M-68.8,938.2L-26.3,951.1M-26.3,951.1L-20.2,857.0M-9.7,963.0L-26.3,951.1M-46.0,-43.6L-27.8,-82.3M26.9,-18.1L28.7,-93.0M451.4,172.0L452.5,168.0M632.8,114.9L532.3,116.9M464.0,11.5L445.5,33.1M464.0,11.5L408.8,-45.2M445.5,33.1L353.7,-8.5M408.8,-45.2L389.4,-35.9M458.1,-96.8L511.6,1.9M345.7,-102.1L389.4,-35.9M283.5,181.5L325.4,163.1M271.9,99.2L282.8,98.3M325.4,163.1L282.8,98.3M339.0,22.9L344.7,52.3M282.8,98.3L344.7,52.3M-4.5,481.1L-34.6,520.2M-34.6,520.2L-31.8,537.2M5.2,431.8L-4.5,481.1M-51.1,508.2L-34.6,520.2M25.2,597.2L46.1,531.1M413.0,725.5L419.1,724.2M413.0,725.5L369.3,719.5M419.1,724.2L442.2,645.3M369.3,719.5L356.9,697.4M356.9,697.4L379.2,650.4M389.2,793.7L413.0,725.5M545.8,895.9L568.6,857.9M667.8,658.8L614.0,612.0M602.6,675.2L614.0,612.0M261.9,711.4L299.8,763.4M551.0,911.5L548.1,964.8M633.1,78.1L578.9,44.6M511.6,1.9L512.9,2.2M471.0,10.8L479.5,63.3M479.5,63.3L516.3,100.6M528.1,102.1L549.5,49.1M512.9,2.2L549.5,49.1M532.3,116.9L528.1,102.1M655.6,-42.3L654.1,-76.3M512.9,2.2L561.1,-67.5M532.3,501.4L559.4,525.4M607.1,504.5L641.9,535.4M761.7,-54.4L763.7,-64.1M976.9,451.4L972.3,449.9M976.9,451.4L1021.3,419.7M972.3,449.9L918.0,384.3M1021.3,419.7L1024.1,417.1M918.0,384.3L968.5,332.5M1024.3,416.0L969.9,332.5M975.5,504.7L930.8,527.4M947.2,317.7L968.5,332.5M1004.0,299.9L969.9,332.5M1109.8,482.9L1118.4,476.1M1109.8,482.9L1024.1,417.1M1176.2,540.0L1184.0,490.3M1129.2,472.7L1184.0,490.3M1252.1,526.9L1243.4,512.7M1176.2,540.0L1151.2,559.8M1151.2,559.8L1156.7,591.8M1156.7,591.8L1153.8,597.3M1373.3,188.2L1339.1,252.0M1416.2,272.0L1395.2,287.9M1448.8,282.9L1416.2,272.0M1294.7,283.4L1339.1,252.0M1361.6,329.5L1395.2,287.9M1223.9,73.4L1182.5,46.5M1279.0,14.9L1194.1,-0.3M1176.3,111.4L1176.2,49.7M1182.5,46.5L1176.2,49.7M1035.6,30.8L1080.9,22.9M1099.2,51.5L1115.2,63.9M1277.9,-57.6L1337.7,-110.7M1108.9,908.9L1108.1,864.6M1108.9,908.9L1182.8,926.3M1204.9,855.4L1197.9,824.7M1302.2,755.2L1293.7,791.6M1197.9,824.7L1293.7,791.6M1406.7,782.4L1396.6,830.5M1298.0,800.1L1293.7,791.6M1003.4,859.8L993.9,894.2M1019.3,849.2L1019.5,849.3M930.3,837.0L1003.4,859.8M978.2,926.1L993.9,894.2M1062.6,945.3L1079.3,933.5M1079.3,933.5L1081.6,928.4M1081.1,830.5L1019.5,849.3M1108.9,908.9L1083.7,925.1M1204.9,855.4L1271.5,878.0M1305.6,863.5L1271.5,878.0M19.3,729.0L26.2,737.2M-49.1,770.6L-1.7,796.7M-1.7,796.7L26.2,737.2M83.9,727.4L71.6,744.3M26.2,737.2L71.6,744.3M185.1,771.8L182.7,784.1M182.7,784.1L124.6,800.9M71.6,744.3L84.5,780.9M27.0,833.8L77.3,866.1M-1.7,796.7L11.7,834.6M-0.7,957.7L20.7,905.2M88.4,934.0L75.5,911.8M110.5,851.3L77.3,866.1M345.1,52.6L431.2,60.9M433.4,65.8L431.2,60.9M452.5,168.0L433.3,120.4M445.5,33.1L431.2,60.9M516.3,100.6L444.7,101.2M428.9,844.5L419.8,843.9M419.1,724.2L456.5,750.8M467.7,804.7L477.1,772.8M456.5,750.8L477.1,772.8M659.6,748.3L633.7,748.9M602.6,675.2L572.1,696.4M633.7,748.9L572.1,696.4M225.6,962.0L298.4,950.3M298.4,950.3L293.5,984.2M339.5,830.6L276.5,811.1M273.1,885.7L263.6,823.0M308.0,930.6L355.0,946.9M355.0,946.9L385.1,856.2M419.8,843.9L395.9,853.8M334.0,766.8L339.5,830.6M156.3,910.3L214.4,907.0M273.1,885.7L214.8,906.5M110.5,851.3L146.0,883.2M134.7,934.4L156.3,910.3M220.8,952.1L214.4,907.0M308.0,930.6L298.4,950.3M355.0,946.9L372.0,961.2M395.9,853.8L389.5,963.9M653.9,576.6L641.8,536.2M641.8,536.2L568.2,557.2M699.1,584.6L653.9,576.6M614.0,612.0L613.5,610.6M641.9,535.4L641.8,536.2M559.4,525.4L568.2,557.2M1037.0,640.6L1054.0,616.8M1054.0,616.8L1080.0,602.2M1259.6,-68.2L1277.9,-57.6M1486.7,791.6L1470.6,843.2M1399.9,851.7L1454.4,856.6M1542.2,865.9L1488.7,907.7M1395.5,859.0L1419.4,917.8M1117.3,1000.0L1181.1,950.5M1197.1,997.8L1181.1,950.5M563.0,696.7L535.5,715.5M563.0,696.7L548.5,606.4M533.8,715.7L483.1,662.0M548.5,606.4L500.3,609.4M470.6,642.0L483.1,662.0M470.6,642.0L500.1,609.5M566.7,595.6L548.5,606.4M507.1,518.1L500.3,609.4M448.4,547.1L500.1,609.5M551.0,911.5L624.0,946.5M704.7,881.6L681.9,918.9M644.6,845.9L621.0,857.5M621.0,857.5L636.1,912.6M621.0,857.5L580.5,850.6M568.6,857.9L580.5,850.6M1031.6,557.2L1058.2,515.7M1058.2,515.7L1090.6,509.7M1090.6,509.7L1087.9,518.9M996.9,547.6L1031.6,557.2M1035.1,511.3L1058.2,515.7M1080.0,602.2L1087.9,518.9M1106.6,497.3L1090.6,509.7M1259.6,-68.2L1196.3,-39.3M1292.9,-11.9L1192.2,-21.8M1196.3,-39.3L1192.2,-21.8M1192.2,-21.8L1191.9,-20.9M1255.2,981.8L1183.1,936.6M1183.2,926.9L1183.1,936.6M1334.0,962.7L1340.6,888.3M1181.1,950.5L1183.1,936.6M1490.8,934.6L1562.6,941.9M1417.9,948.5L1479.6,953.2M1419.4,917.8L1417.9,948.5M594.0,773.3L567.2,759.1M594.0,773.3L579.8,844.3M535.5,715.5L567.2,759.1M580.5,850.6L579.8,844.3M483.7,769.1L543.0,789.3M983.1,3.9L1016.4,-51.5M1080.9,22.9L1081.1,16.1M1016.4,-51.5L1081.1,16.1M1016.4,-51.5L1016.3,-94.5M1191.9,-20.9L1104.5,-24.7M1081.1,16.1L1104.5,-24.7" stroke="#3a1601" stroke-opacity=".40" stroke-width="1"/>
</g>
<rect width="1440" height="900" filter="url(#grit)" opacity="0.20" style="mix-blend-mode:multiply"/>
<rect width="1440" height="900" filter="url(#grit)" opacity="0.09" style="mix-blend-mode:screen"/>
</svg>
