<svg xmlns="http://www.w3.org/2000/svg" viewBox="0 0 200 200" width="200" height="200">
<defs>
  <radialGradient id="s" cx="40%" cy="34%" r="86%">
    <stop offset="0%" stop-color="#3a3531"/><stop offset="60%" stop-color="#241f1c"/>
    <stop offset="100%" stop-color="#141110"/>
  </radialGradient>
  <filter id="g" x="0" y="0" width="100%" height="100%">
    <feTurbulence type="fractalNoise" baseFrequency="0.85" numOctaves="3" stitchTiles="stitch" result="n"/>
    <feColorMatrix in="n" type="saturate" values="0"/>
  </filter>
  <filter id="w" x="-15%" y="-15%" width="130%" height="130%">
    <feTurbulence type="fractalNoise" baseFrequency="0.05" numOctaves="3" seed="7" result="t"/>
    <feDisplacementMap in="SourceGraphic" in2="t" scale="6" xChannelSelector="R" yChannelSelector="G"/>
  </filter>
</defs>
<rect width="200" height="200" fill="url(#s)"/>
<g filter="url(#w)" fill="none" stroke-linecap="round">
  <path d="M-222.3,-1476.2L-51.7,-40.8M-214.9,54.4L-51.7,-40.8M-214.9,54.4L-37.0,61.5M-51.7,-40.8L-29.4,-21.6M-29.4,-21.6L-11.9,30.9M-37.0,61.5L-11.9,30.9M-37.0,61.5L-11.4,133.5M-11.9,30.9L16.2,29.8M32.6,142.3L-11.4,133.5M32.6,142.3L68.9,83.2M68.9,83.2L16.2,29.8M32.6,142.3L51.7,167.5M131.9,64.0L68.9,83.2M131.9,64.0L140.0,78.6M141.4,150.1L140.0,78.6M141.4,150.1L72.2,170.3M72.2,170.3L51.7,167.5M-21.9,301.4L29.7,251.6M-21.9,301.4L-102.7,196.5M-102.7,196.5L-53.4,168.8M29.7,251.6L31.1,234.8M113.3,265.8L29.7,251.6M-11.4,133.5L-53.4,168.8M51.7,167.5L31.1,234.8M113.3,265.8L125.3,252.6M125.3,252.6L72.2,170.3M125.3,252.6L151.5,240.0M141.4,150.1L162.6,170.7M151.5,240.0L162.6,170.7M175.9,-21.4L166.4,15.1M175.9,-21.4L173.2,-58.5M173.2,-58.5L80.4,-131.9M137.1,37.6L74.6,-20.2M137.1,37.6L166.4,15.1M74.6,-20.2L68.4,-77.2M247.1,35.7L166.4,15.1M247.1,35.7L335.3,-31.6M335.3,-31.6L175.9,-21.4M1350.3,-612.5L173.2,-58.5M131.9,64.0L137.1,37.6M16.2,29.8L74.6,-20.2M140.0,78.6L239.3,103.2M239.3,103.2L247.1,35.7M-29.4,-21.6L68.4,-77.2M245.9,115.7L194.7,166.8M245.9,115.7L339.4,156.6M194.7,166.8L251.3,225.1M339.4,156.6L251.3,225.1M239.3,103.2L245.9,115.7M162.6,170.7L194.7,166.8M231.7,276.6L251.3,225.1" stroke="#0b0908" stroke-opacity=".75" stroke-width="1.5"/>
  <path d="M-222.3,-1476.2L-51.7,-40.8M-214.9,54.4L-51.7,-40.8M-214.9,54.4L-37.0,61.5M-51.7,-40.8L-29.4,-21.6M-29.4,-21.6L-11.9,30.9M-37.0,61.5L-11.9,30.9M-37.0,61.5L-11.4,133.5M-11.9,30.9L16.2,29.8M32.6,142.3L-11.4,133.5M32.6,142.3L68.9,83.2M68.9,83.2L16.2,29.8M32.6,142.3L51.7,167.5M131.9,64.0L68.9,83.2M131.9,64.0L140.0,78.6M141.4,150.1L140.0,78.6M141.4,150.1L72.2,170.3M72.2,170.3L51.7,167.5M-21.9,301.4L29.7,251.6M-21.9,301.4L-102.7,196.5M-102.7,196.5L-53.4,168.8M29.7,251.6L31.1,234.8M113.3,265.8L29.7,251.6M-11.4,133.5L-53.4,168.8M51.7,167.5L31.1,234.8M113.3,265.8L125.3,252.6M125.3,252.6L72.2,170.3M125.3,252.6L151.5,240.0M141.4,150.1L162.6,170.7M151.5,240.0L162.6,170.7M175.9,-21.4L166.4,15.1M175.9,-21.4L173.2,-58.5M173.2,-58.5L80.4,-131.9M137.1,37.6L74.6,-20.2M137.1,37.6L166.4,15.1M74.6,-20.2L68.4,-77.2M247.1,35.7L166.4,15.1M247.1,35.7L335.3,-31.6M335.3,-31.6L175.9,-21.4M1350.3,-612.5L173.2,-58.5M131.9,64.0L137.1,37.6M16.2,29.8L74.6,-20.2M140.0,78.6L239.3,103.2M239.3,103.2L247.1,35.7M-29.4,-21.6L68.4,-77.2M245.9,115.7L194.7,166.8M245.9,115.7L339.4,156.6M194.7,166.8L251.3,225.1M339.4,156.6L251.3,225.1M239.3,103.2L245.9,115.7M162.6,170.7L194.7,166.8M231.7,276.6L251.3,225.1" stroke="#8d857d" stroke-opacity=".28" stroke-width=".7" transform="translate(.8,.8)"/>
  <path d="M-337.4,140.4L-37.2,124.9M-146.6,168.9L-46.6,161.0M-46.6,161.0L-37.2,124.9M246.9,80.3L247.4,79.0M322.0,140.1L259.1,110.3M259.1,110.3L244.4,123.1M244.4,123.1L241.9,124.0M215.2,96.0L217.1,117.8M241.9,124.0L217.1,117.8M158.5,144.2L127.2,135.0M158.5,144.2L162.1,157.9M127.2,135.0L134.7,159.3M134.7,159.3L152.3,166.1M-37.2,124.9L-33.3,122.6M-36.5,110.1L-73.5,90.8M-45.2,229.5L-52.3,240.7M-45.2,229.5L-50.9,201.1M-50.9,201.1L-57.1,199.8M-52.3,240.7L-67.4,236.8M-18.4,205.3L-32.1,192.6M-18.4,205.3L-6.9,223.0M-32.1,192.6L-50.9,201.1M-146.6,168.9L-57.1,199.8M-35.4,168.7L-46.6,161.0M-35.4,168.7L-29.2,179.2M-29.2,179.2L-32.1,192.6M-22.4,-63.6L-13.0,-42.5M-22.4,-63.6L-59.4,-45.4M-13.0,-42.5L-33.3,-28.3M-33.3,-28.3L-56.6,-34.3M-74.3,-6.4L-45.5,13.7M-74.3,-6.4L-56.6,-34.3M-31.6,-0.9L-33.3,-28.3M-43.0,27.6L-2.0,26.1M-47.4,42.6L-46.5,43.8M-36.2,48.3L2.4,36.7M-28.5,-244.3L22.6,-57.3M-13.0,-42.5L-9.4,-40.8M22.6,-57.3L-9.4,-40.8M244.4,123.1L262.1,152.9M234.6,152.2L241.9,124.0M234.6,152.2L248.7,158.1M248.7,158.1L262.1,152.9M201.0,194.3L244.2,197.4M244.2,197.4L243.7,195.4M119.0,132.8L98.0,120.7M119.0,132.8L121.8,132.0M105.4,93.9L98.0,120.7M161.6,137.4L158.4,100.8M190.4,128.5L182.2,110.3M218.6,169.4L232.2,152.3M218.6,169.4L194.3,156.9M232.2,152.3L207.7,133.3M203.3,135.2L207.7,133.3M218.6,169.6L218.6,169.4M181.1,166.5L194.3,156.9M201.0,194.3L195.8,196.3M195.8,196.3L181.6,168.7M215.2,96.0L209.7,93.3M107.4,160.2L119.0,132.8M107.4,160.2L67.6,143.9M83.8,122.7L66.8,137.1M83.8,122.7L98.0,120.7M67.6,143.9L66.8,137.1M50.1,119.7L51.6,126.8M83.8,122.7L78.2,103.7M51.7,126.9L66.8,137.1M114.7,176.1L110.3,168.6M114.7,205.5L104.5,210.0M108.9,167.2L110.3,168.6M134.7,159.3L110.3,168.6M152.3,166.1L146.4,176.5M146.4,176.5L114.7,176.1M79.6,179.8L79.6,198.1M107.4,160.2L108.9,167.2M79.6,179.8L60.5,163.2M127.2,135.0L121.8,132.0M45.8,172.8L60.5,163.2M51.7,126.9L29.6,155.6M34.4,170.3L29.6,155.6M51.6,126.8L14.1,132.6M29.6,155.6L14.1,132.6M-43.8,261.9L-16.2,251.6M-16.2,251.6L-11.0,246.0M-36.2,48.3L-25.7,53.7M2.4,36.7L5.6,42.8M-25.7,53.7L-9.8,72.8M5.6,42.8L9.9,47.0M-1.7,69.5L-9.8,72.8M-34.3,89.3L-14.5,82.1M-12.9,78.2L-43.1,64.8M-36.5,110.1L-34.3,89.3M-73.5,90.8L-42.9,81.3M-33.3,122.6L-13.4,126.9M-13.4,126.9L-8.2,93.7M-8.2,93.7L-14.5,82.1M18.9,84.1L15.4,94.3M-9.8,72.8L-12.9,78.2M-46.5,43.8L-43.1,64.8M22.6,-57.3L28.6,-53.8M28.6,-53.8L25.7,-27.8M45.3,-53.9L56.6,-43.3M37.9,-22.7L25.7,-27.8M300.3,49.3L228.9,44.0M228.9,44.0L229.0,43.6M277.1,17.7L246.6,20.8M229.0,43.6L246.6,20.8M44.4,106.4L17.6,105.4M44.4,106.4L51.1,74.4M17.6,105.4L15.4,94.3M43.1,71.0L51.1,74.4M56.7,74.6L70.9,98.2M56.7,74.6L52.2,74.2M44.4,106.4L50.1,119.7M78.2,103.7L100.8,78.0M100.8,78.0L101.3,78.9M28.4,48.0L43.9,17.6M52.2,74.2L63.4,27.9M63.4,27.9L43.9,17.6M203.6,50.0L227.3,48.5M230.9,56.2L227.3,48.5M228.9,44.0L227.3,48.5M117.1,251.1L134.6,231.0M92.8,235.8L104.5,210.0M127.5,210.0L134.6,231.0M199.1,242.9L247.1,320.7M225.5,243.2L236.8,260.2M284.4,227.7L236.8,260.2M251.2,210.5L248.0,213.1M248.0,213.1L225.5,243.2M195.8,196.3L194.7,199.4M248.0,213.1L219.3,215.0M199.1,242.9L194.8,242.0M219.3,215.0L194.8,242.0M12.8,177.6L8.9,176.7M12.8,177.6L12.9,177.6M12.9,177.6L11.3,131.7M8.9,176.7L-4.0,170.4M-9.1,132.9L-8.7,130.1M6.0,128.7L11.3,131.7M-6.9,223.0L6.5,219.8M15.2,211.5L12.8,177.6M14.1,132.6L11.3,131.7M-29.2,179.2L-4.0,170.4M-13.4,126.9L-8.7,130.1M17.6,105.4L6.0,128.7M39.5,210.5L49.5,234.0M39.5,210.5L48.9,199.5M49.5,234.0L70.0,218.7M48.9,199.5L68.3,204.4M45.8,172.8L48.9,199.5M15.2,211.5L39.5,210.5M79.6,198.1L68.3,204.4M90.2,237.4L130.1,531.1M91.0,236.6L90.2,237.4M49.4,238.4L49.5,234.0M-16.2,251.6L55.4,491.8M25.9,243.9L29.7,248.1M49.4,238.4L29.7,248.1M-0.9,-25.8L14.3,-20.8M-0.9,-25.8L-10.5,-3.0M14.3,-20.8L22.9,6.0M-10.5,-3.0L3.7,12.6M3.7,12.6L22.9,6.0M-31.6,-0.9L-10.5,-3.0M37.9,-22.7L48.0,0.6M48.0,0.6L41.8,11.4M100.8,78.0L99.5,71.9M81.6,67.1L99.5,71.9M199.9,81.4L174.5,86.9M195.6,64.1L174.5,59.2M174.5,59.2L174.5,86.9M108.3,63.9L99.5,71.9M108.3,63.9L148.5,84.0M148.5,84.0L151.0,96.7M158.4,100.8L157.7,99.7M174.5,86.9L157.7,99.7M135.1,108.0L151.1,96.9M157.7,99.7L151.1,96.9M229.0,43.6L213.5,23.9M246.6,20.8L229.0,7.3M229.0,7.3L213.5,23.9M203.6,50.0L200.7,45.0M200.7,45.0L198.5,23.2M127.5,210.0L131.4,208.1M148.3,191.5L131.4,208.1M78.5,-140.4L83.0,-50.0M124.6,-101.7L109.6,-44.3M109.6,-44.3L83.0,-50.0M56.6,-43.3L69.6,-38.5M83.0,-50.0L69.6,-38.5M51.5,-1.7L48.0,0.6M51.5,-1.7L70.4,-33.0M69.6,-38.5L70.4,-33.0M144.5,-44.8L139.1,-73.3M144.5,-44.8L177.3,-57.2M163.7,217.5L147.3,236.2M184.2,215.1L193.0,241.9M184.2,215.1L174.4,212.9M151.0,242.1L191.4,243.9M191.4,243.9L193.0,241.9M160.1,196.2L174.4,212.9M134.6,231.0L147.3,236.2M194.7,199.4L184.2,215.1M194.8,242.0L193.0,241.9M137.7,328.2L151.0,242.1M143.2,383.1L191.4,243.9M148.5,84.0L155.3,46.1M108.3,63.9L110.3,60.1M155.3,46.1L110.3,60.1M158.9,29.2L157.7,38.6M118.0,33.0L156.2,43.1M157.7,38.6L156.2,43.1M200.7,45.0L157.7,38.6M190.1,14.7L158.9,29.2M107.5,33.4L118.0,33.0M316.7,-110.8L227.0,-46.1M230.1,-31.0L227.0,-46.1M200.5,-109.6L216.5,-53.6M177.3,-57.2L188.3,-33.1M109.6,-44.3L115.0,-37.6M70.4,-33.0L89.6,-11.8M115.0,-37.6L127.3,-31.7M141.2,-38.3L127.3,-31.7M89.6,-11.8L90.8,-3.3M90.8,-3.3L127.3,-23.2M105.5,30.0L76.9,31.8M85.9,0.1L90.8,-3.2M90.8,-3.3L90.8,-3.2M130.6,1.2L127.3,-23.2M130.6,1.2L109.5,10.2M107.5,33.4L105.5,30.0M147.2,10.7L130.6,1.2M81.6,67.1L76.9,31.8M63.4,27.9L73.4,29.1M51.5,-1.7L85.9,0.1M235.1,-15.5L228.7,6.6M235.1,-15.5L228.6,-26.4M228.7,6.6L195.6,-4.9M195.6,-4.9L193.1,-16.6M260.8,-11.0L235.1,-15.5M187.9,-22.0L193.1,-16.6M187.9,-22.0L188.3,-33.1M190.1,14.7L195.6,-4.9M144.3,-36.0L154.6,0.3M147.2,10.7L154.6,0.3" stroke="#0b0908" stroke-opacity=".45" stroke-width=".7"/>
</g>
<rect width="200" height="200" filter="url(#g)" opacity="0.16" style="mix-blend-mode:multiply"/>
<rect width="200" height="200" filter="url(#g)" opacity="0.08" style="mix-blend-mode:screen"/>
</svg>
